<svg id="Layer_2" data-name="Layer 2" xmlns="http://www.w3.org/2000/svg" width="1212" height="552.86" viewBox="0 0 1212 552.86"><defs><style>.cls-1,.cls-10,.cls-11,.cls-2,.cls-4,.cls-5,.cls-6,.cls-9{fill:none;}.cls-1{stroke:#666;stroke-width:5px;}.cls-1,.cls-10,.cls-11,.cls-2,.cls-4,.cls-5,.cls-6,.cls-7,.cls-9{stroke-miterlimit:10;}.cls-2,.cls-4,.cls-5,.cls-6,.cls-7{stroke:#000;}.cls-12,.cls-2{stroke-width:2px;}.cls-3,.cls-4{opacity:0.5;}.cls-4,.cls-5,.cls-6{stroke-width:0.75px;}.cls-4{stroke-dasharray:2;}.cls-6{stroke-dasharray:1.96 1.96;}.cls-7{fill:#fff;stroke-width:0.5px;}.cls-8{fill:#4d4d4d;}.cls-9{stroke:blue;}.cls-10,.cls-11,.cls-9{stroke-width:3px;}.cls-10{stroke:#fcee21;}.cls-11{stroke:#39b54a;}.cls-12{fill:#f2f2f2;stroke:#333;stroke-linecap:round;stroke-linejoin:round;}.cls-13{font-size:30px;font-family:Gotham-Bold, Gotham;font-weight:700;opacity:0.49;}</style></defs><title>FloorPlan</title><polyline class="cls-1" points="1150.24 222.69 1150.32 305.89 793.75 305.89 793.75 543 438.08 543 81.5 543 81.5 491"/><polyline class="cls-1" points="81.5 361 81.5 246.61 438.08 246.61 438.08 9.5 1150.32 9.5 1150.24 92.16"/><rect class="cls-2" x="71.75" y="360.75" width="18.5" height="13"/><rect class="cls-2" x="1140.75" y="92.75" width="18.5" height="13"/><rect class="cls-2" x="1140.75" y="209.75" width="18.5" height="13"/><rect class="cls-2" x="71.75" y="476.75" width="18.5" height="13"/><rect class="cls-2" x="19" y="479" width="51" height="6"/><rect class="cls-2" x="20" y="364" width="50" height="6"/><rect class="cls-2" x="1160" y="212" width="51" height="6"/><rect class="cls-2" x="1161" y="97" width="50" height="6"/><g class="cls-3"><path d="M1291.38,319h-.76c0-.66,0-1.33,0-2l.75,0C1291.36,317.65,1291.38,318.33,1291.38,319Zm-.91-4c0-.67-.12-1.32-.2-2l.75-.09c.08.67.14,1.33.2,2Zm-.47-3.94c-.1-.66-.22-1.31-.35-2l.73-.15c.14.66.25,1.32.36,2Zm-.78-3.89q-.24-1-.51-1.92l.72-.21c.19.64.36,1.29.52,1.95Zm-1.09-3.82c-.21-.63-.43-1.26-.67-1.87l.71-.27c.23.63.46,1.26.67,1.91Zm-1.4-3.72c-.26-.61-.53-1.22-.81-1.82l.67-.32c.29.61.56,1.22.83,1.85Zm-1.7-3.6c-.31-.59-.62-1.17-1-1.74l.65-.37c.33.58.65,1.17,1,1.76Zm-2-3.45c-.35-.56-.71-1.11-1.09-1.66l.62-.42c.38.55.75,1.12,1.11,1.68Zm-2.24-3.27c-.4-.53-.8-1.06-1.22-1.57l.58-.47c.43.52.84,1.05,1.24,1.59Zm-2.5-3.09c-.43-.5-.88-1-1.34-1.46l.55-.52c.46.49.91,1,1.36,1.49Zm-2.73-2.87c-.48-.46-1-.92-1.45-1.36l.5-.56q.75.67,1.47,1.38Zm-3-2.65c-.51-.42-1-.83-1.55-1.23l.45-.6c.54.41,1.06.82,1.58,1.25Zm-3.15-2.41c-.54-.37-1.09-.74-1.65-1.1l.41-.63c.56.36,1.12.74,1.67,1.12Zm-3.34-2.14c-.56-.33-1.14-.66-1.72-1l.35-.66,1.76,1Zm-3.49-1.87c-.59-.28-1.19-.56-1.79-.82l.3-.69c.61.27,1.22.55,1.82.84Zm-3.62-1.58c-.62-.24-1.24-.47-1.87-.68l.25-.71q.94.33,1.89.69Zm-3.76-1.29c-.63-.19-1.26-.36-1.91-.53l.19-.73c.65.17,1.3.35,1.94.54Zm-3.84-1c-.64-.14-1.29-.26-2-.38l.13-.74,2,.38Zm-3.91-.67c-.65-.09-1.31-.16-2-.22l.06-.75c.68.06,1.34.14,2,.22Zm-4-.36-2-.06v-.75c.68,0,1.35,0,2,.06Z" transform="translate(-80 -110)"/></g><path class="cls-4" d="M1291,216a50,50,0,0,1-50,50" transform="translate(-80 -110)"/><g class="cls-3"><path d="M100.38,586h-.76c0-.34,0-.67,0-1l.75,0Z" transform="translate(-80 -110)"/><path d="M100.46,583.06l-.75,0c0-.66.09-1.32.16-2l.74.07C100.55,581.76,100.5,582.41,100.46,583.06Zm.38-3.87-.75-.11c.09-.65.2-1.3.31-2l.74.13C101,577.9,100.93,578.54,100.84,579.19Zm.68-3.84-.73-.16q.21-1,.45-1.92l.73.19Q101.73,574.41,101.52,575.35Zm1-3.77-.72-.21c.19-.64.39-1.27.61-1.89l.71.25C102.89,570.34,102.69,571,102.5,571.58Zm1.27-3.68-.69-.28q.36-.92.75-1.83l.69.3C104.26,566.69,104,567.29,103.77,567.9Zm1.57-3.58-.68-.32q.44-.9.9-1.77l.66.36C105.92,563.16,105.62,563.74,105.34,564.32Zm1.84-3.43-.65-.38c.34-.57.68-1.13,1-1.69l.63.4C107.85,559.77,107.51,560.33,107.18,560.89Zm2.1-3.28-.61-.43c.38-.55.76-1.08,1.16-1.6l.6.45C110,556.55,109.65,557.07,109.28,557.61Zm2.36-3.11-.58-.48c.42-.51.84-1,1.28-1.5l.56.5C112.47,553.51,112.05,554,111.64,554.5Zm2.59-2.91-.55-.52,1.4-1.4.52.54C115.13,550.66,114.67,551.12,114.23,551.59Zm2.8-2.7-.5-.56c.49-.44,1-.86,1.5-1.28l.48.58C118,548,117.52,548.46,117,548.89Zm3-2.47-.45-.59q.78-.6,1.59-1.17l.43.62C121.08,545.65,120.56,546,120,546.42Zm3.19-2.22-.41-.63c.56-.36,1.12-.7,1.68-1l.38.65C124.33,543.51,123.77,543.85,123.23,544.2Zm3.35-2-.35-.66c.57-.31,1.16-.61,1.75-.9l.33.67C127.73,541.63,127.15,541.92,126.58,542.23Zm3.49-1.7-.3-.69c.6-.26,1.21-.51,1.82-.75l.28.7C131.26,540,130.67,540.27,130.07,540.53Zm3.62-1.42-.24-.71c.62-.21,1.25-.42,1.88-.61l.21.72C134.92,538.7,134.31,538.9,133.69,539.11Zm3.73-1.13-.19-.72c.64-.17,1.28-.32,1.92-.47l.16.74Zm3.8-.83-.13-.74c.65-.12,1.3-.22,1.95-.31l.1.74C142.5,536.93,141.86,537,141.22,537.15Zm3.86-.53-.08-.75c.66-.07,1.31-.12,2-.16l0,.75C146.37,536.5,145.72,536.55,145.08,536.62Z" transform="translate(-80 -110)"/><path d="M149,536.38l0-.75h1v.76Z" transform="translate(-80 -110)"/></g><g class="cls-3"><path class="cls-5" d="M100,483c0,.33,0,.67,0,1" transform="translate(-80 -110)"/><path class="cls-6" d="M100.09,486A50,50,0,0,0,148,533" transform="translate(-80 -110)"/><path class="cls-5" d="M149,533h1" transform="translate(-80 -110)"/></g><rect class="cls-7" x="72.5" y="259" width="4.5" height="97"/><rect class="cls-7" x="134.25" y="237.25" width="77.75" height="4.5"/><rect class="cls-7" x="1153.87" y="22" width="4.5" height="68"/><rect class="cls-7" x="1153.88" y="225" width="4.5" height="70"/><rect class="cls-7" x="278.25" y="237.25" width="77.75" height="4.5"/><rect class="cls-7" x="428.88" y="22" width="4.5" height="213"/><rect class="cls-7" x="797.88" y="318" width="4.5" height="212"/><rect class="cls-7" x="1019" y="0.94" width="117" height="4.5"/><rect class="cls-7" x="902" y="0.94" width="117" height="4.5"/><rect class="cls-7" x="72.5" y="493" width="4.5" height="38"/><path class="cls-8" d="M134,347.33v18.48c0,.18.41.33.91.33h76.68c.5,0,.91-.15.91-.33V347.33c0-.18-.41-.33-.91-.33H134.91C134.41,347,134,347.15,134,347.33Z" transform="translate(-80 -110)"/><path class="cls-8" d="M293,347.35v19.16c0,.19.33.35.74.35h62.52c.41,0,.74-.16.74-.35V347.35c0-.2-.33-.35-.74-.35H293.74C293.33,347,293,347.15,293,347.35Z" transform="translate(-80 -110)"/><path class="cls-8" d="M437,347.21v19.44c0,.19.6.35,1.34.35H550.66c.74,0,1.34-.16,1.34-.35V347.21c0-.2-.6-.35-1.34-.35H438.34C437.6,346.86,437,347,437,347.21Z" transform="translate(-80 -110)"/><path class="cls-8" d="M875.31,406.33v18.34c0,.18,2.08.33,4.66.33h391.85c2.57,0,4.66-.15,4.66-.33V406.33c0-.18-2.09-.33-4.66-.33H880C877.39,406,875.31,406.15,875.31,406.33Z" transform="translate(-80 -110)"/><path class="cls-8" d="M1217,110.35v19.16c0,.19.33.35.74.35h62.52c.41,0,.74-.16.74-.35V110.35c0-.2-.33-.35-.74-.35h-62.52C1217.33,110,1217,110.15,1217,110.35Z" transform="translate(-80 -110)"/><path class="cls-8" d="M488,110.35v19.16c0,.19,2.56.35,5.72.35H974.28c3.16,0,5.72-.16,5.72-.35V110.35c0-.2-2.56-.35-5.72-.35H493.72C490.56,110,488,110.15,488,110.35Z" transform="translate(-80 -110)"/><path class="cls-8" d="M80,643.35v19.16c0,.19,4.15.35,9.26.35H867.74c5.11,0,9.26-.16,9.26-.35V643.35c0-.2-4.15-.35-9.26-.35H89.26C84.15,643,80,643.15,80,643.35Z" transform="translate(-80 -110)"/><rect class="cls-9" x="94.5" y="259.5" width="345" height="270"/><rect class="cls-10" x="443.5" y="22.5" width="344" height="507"/><rect class="cls-11" x="791.5" y="22.5" width="345" height="270"/><g id="meeting_room" data-name="meeting room" class="cls-3"><rect class="cls-12" x="627.08" y="387.45" width="29.31" height="9.49" transform="translate(953.93 -359.54) rotate(90)"/><path class="cls-12" d="M630.62,400.48V383.91a6.37,6.37,0,0,1,6.37-6.37h0v29.31h0A6.37,6.37,0,0,1,630.62,400.48Z" transform="translate(-80 -110)"/><rect class="cls-12" x="627.08" y="349.45" width="29.31" height="9.49" transform="translate(915.93 -397.54) rotate(90)"/><path class="cls-12" d="M630.62,362.48V345.91a6.37,6.37,0,0,1,6.37-6.37h0v29.31h0A6.37,6.37,0,0,1,630.62,362.48Z" transform="translate(-80 -110)"/><rect class="cls-12" x="626.08" y="311.45" width="29.31" height="9.49" transform="translate(876.93 -434.54) rotate(90)"/><path class="cls-12" d="M629.62,324.48V307.91a6.37,6.37,0,0,1,6.37-6.37h0v29.31h0A6.37,6.37,0,0,1,629.62,324.48Z" transform="translate(-80 -110)"/><rect class="cls-12" x="632.79" y="272.77" width="29.31" height="9.49" transform="translate(1088.07 -306.99) rotate(114.45)"/><path class="cls-12" d="M633.9,280.46l6.86-15.09a6.37,6.37,0,0,1,8.44-3.16h0l-12.14,26.68h0A6.36,6.36,0,0,1,633.9,280.46Z" transform="translate(-80 -110)"/><rect class="cls-12" x="627.08" y="425.08" width="29.31" height="9.49" transform="translate(991.56 -321.91) rotate(90)"/><path class="cls-12" d="M630.62,438.11V421.54a6.37,6.37,0,0,1,6.37-6.37h0v29.31h0A6.37,6.37,0,0,1,630.62,438.11Z" transform="translate(-80 -110)"/><rect class="cls-12" x="627.08" y="462.08" width="29.31" height="9.49" transform="translate(1028.56 -284.91) rotate(90)"/><path class="cls-12" d="M630.62,475.11V458.54a6.37,6.37,0,0,1,6.37-6.37h0v29.31h0A6.37,6.37,0,0,1,630.62,475.11Z" transform="translate(-80 -110)"/><rect class="cls-12" x="634.67" y="503.53" width="29.31" height="9.49" transform="translate(696.1 -416.53) rotate(60.79)"/><path class="cls-12" d="M643.67,520.93l-8.09-14.46a6.38,6.38,0,0,1,2.46-8.68h0l14.3,25.59h0A6.37,6.37,0,0,1,643.67,520.93Z" transform="translate(-80 -110)"/><rect class="cls-12" x="720.85" y="386.45" width="29.31" height="9.49" transform="translate(1046.7 -454.31) rotate(90)"/><path class="cls-12" d="M746.63,399.48V382.91a6.38,6.38,0,0,0-6.38-6.37h0v29.31h0A6.38,6.38,0,0,0,746.63,399.48Z" transform="translate(-80 -110)"/><rect class="cls-12" x="720.85" y="348.45" width="29.31" height="9.49" transform="translate(1008.7 -492.31) rotate(90)"/><path class="cls-12" d="M746.63,361.48V344.91a6.38,6.38,0,0,0-6.38-6.37h0v29.31h0A6.38,6.38,0,0,0,746.63,361.48Z" transform="translate(-80 -110)"/><rect class="cls-12" x="721.85" y="310.45" width="29.31" height="9.49" transform="translate(971.7 -531.31) rotate(90)"/><path class="cls-12" d="M747.63,323.48V306.91a6.38,6.38,0,0,0-6.38-6.37h0v29.31h0A6.38,6.38,0,0,0,747.63,323.48Z" transform="translate(-80 -110)"/><rect class="cls-12" x="715.14" y="271.77" width="29.31" height="9.49" transform="translate(599.42 -612.28) rotate(65.55)"/><path class="cls-12" d="M743.34,279.46l-6.86-15.09a6.36,6.36,0,0,0-8.43-3.16h0l12.13,26.68h0A6.36,6.36,0,0,0,743.34,279.46Z" transform="translate(-80 -110)"/><rect class="cls-12" x="720.85" y="424.08" width="29.31" height="9.49" transform="translate(1084.33 -416.68) rotate(90)"/><path class="cls-12" d="M746.63,437.11V420.54a6.38,6.38,0,0,0-6.38-6.37h0v29.31h0A6.38,6.38,0,0,0,746.63,437.11Z" transform="translate(-80 -110)"/><rect class="cls-12" x="720.85" y="461.08" width="29.31" height="9.49" transform="translate(1121.33 -379.68) rotate(90)"/><path class="cls-12" d="M746.63,474.11V457.54a6.38,6.38,0,0,0-6.38-6.37h0v29.31h0A6.38,6.38,0,0,0,746.63,474.11Z" transform="translate(-80 -110)"/><rect class="cls-12" x="713.26" y="502.53" width="29.31" height="9.49" transform="translate(1445.9 9.47) rotate(119.21)"/><path class="cls-12" d="M733.57,519.93l8.09-14.46a6.38,6.38,0,0,0-2.45-8.68h0L724.9,522.38h0A6.37,6.37,0,0,0,733.57,519.93Z" transform="translate(-80 -110)"/><rect class="cls-12" x="674.02" y="520.9" width="29.31" height="9.49" transform="translate(1300.74 936.8) rotate(179.63)"/><path class="cls-12" d="M680.46,536.81,697,536.7a6.37,6.37,0,0,0,6.33-6.41h0l-29.31.19h0A6.37,6.37,0,0,0,680.46,536.81Z" transform="translate(-80 -110)"/><rect class="cls-12" x="674.02" y="253.23" width="29.31" height="9.49" transform="translate(1295.66 410.4) rotate(-179.63)"/><path class="cls-12" d="M680.46,246.8l16.57.11a6.37,6.37,0,0,1,6.33,6.41h0l-29.31-.19h0A6.37,6.37,0,0,1,680.46,246.8Z" transform="translate(-80 -110)"/><path class="cls-12" d="M646.48,403.39v77.9c0,21.38,10.3,38.71,23,38.71h37.45c12.71,0,23-17.33,23-38.71V301.71c0-21.38-10.3-38.71-23-38.71H669.49c-12.71,0-23,17.33-23,38.71Z" transform="translate(-80 -110)"/></g><text class="cls-13" transform="translate(224.62 386.5)">Front<tspan x="-35.43" y="36">Enterance</tspan></text><text class="cls-13" transform="translate(932.1 152.5)">Back<tspan x="-39.91" y="36">Enterance</tspan></text><text class="cls-13" transform="translate(546.62 79.5)">Meeting<tspan x="25.44" y="36">Area</tspan></text>
</svg>
