<svg xmlns="http://www.w3.org/2000/svg" viewBox="0 0 770.82 321.7"><defs><style>.cls-1,.cls-4{fill:none;stroke-miterlimit:10;}.cls-1{stroke:#231f20;stroke-width:4px;}.cls-2{fill:#231f20;}.cls-3{fill:#00aeef;}.cls-4{stroke:#6d6e71;}</style></defs><title>LDMS map2</title><g id="wall"><polyline class="cls-1" points="207.81 25.49 390.37 25.6 390.37 109.69 439.62 109.56"/><path class="cls-1" d="M763.75,405.38c-.21,17.78,0-5.9,0,12.1h-252v42h-84c0-14,0-28-.15-41.83-6.07,0,0,2.44,0,0-60.85-1.17-121.85.83-182.57.66,0-8.4.07,0,0,0q-.42-83.74-.28-167.83c40-1,81,0,121-2,3,0,0-4,1-7-41,0-81,0-121.72-.41" transform="translate(-37.23 -139.78)"/><path class="cls-1" d="M582.7,165.39c76.25,0,146,.09,222,.09,2,56,0,112,1,168-9.53,0-.06-3.15,0,0h-42v11.38" transform="translate(-37.23 -139.78)"/><path class="cls-1" d="M427.6,165.39c45.15.09,85.61.09,130.82.07" transform="translate(-37.23 -139.78)"/><polyline class="cls-1" points="547.37 25.6 547.37 109.69 620.33 109.69 620.33 25.6"/><polyline class="cls-1" points="2 89.85 2 64.79 2 2.54 162.77 2.01 162.48 44.04"/><polyline class="cls-1" points="0.6 158.46 77.51 158.28 77.81 64.72 87.25 64.75 87.05 127.12 162.54 127.37 162.67 87.85"/><polyline class="cls-1" points="650.59 109.68 706.72 109.68 768.52 109.69"/><line class="cls-1" x1="706.45" y1="25.6" x2="706.45" y2="109.69"/><polyline class="cls-1" points="463.22 109.69 518.94 109.96 519.3 25.6"/><rect class="cls-2" x="547.42" y="26.11" width="72.92" height="83.58"/><rect class="cls-2" x="706.45" y="25.8" width="61.41" height="83.58"/><polyline class="cls-1" points="768.52 193.7 768.81 277.77 726.52 277.77"/><polygon class="cls-3" points="624.16 227.21 611.6 248.97 636.72 248.97 624.16 227.21"/><polygon class="cls-3" points="311.15 224.86 298.59 246.61 323.71 246.61 311.15 224.86"/><polygon class="cls-3" points="94.94 33.17 82.38 54.92 107.5 54.92 94.94 33.17"/></g><g id="door"><line class="cls-4" x1="439.62" y1="109.68" x2="463.22" y2="109.68"/><line class="cls-4" x1="520.92" y1="110.12" x2="545.36" y2="110.12"/><line class="cls-4" x1="622.25" y1="109.68" x2="650.59" y2="109.68"/><line class="cls-4" x1="208.26" y1="99.28" x2="208.26" y2="27.49"/><line class="cls-4" x1="162.67" y1="87.85" x2="162.67" y2="44.05"/><line class="cls-4" x1="1.71" y1="158.46" x2="1.71" y2="89.85"/><line class="cls-4" x1="726.52" y1="265.6" x2="726.52" y2="205.08"/></g></svg>